<?xml version="1.0" encoding="UTF-8" standalone="no"?>
<!-- Created with Inkscape (http://www.inkscape.org/) -->

<svg
   width="99.950401mm"
   height="100.21283mm"
   viewBox="0 0 99.950401 100.21283"
   version="1.1"
   id="svg1"
   inkscape:version="1.4 (e7c3feb100, 2024-10-09)"
   sodipodi:docname="icon.svg"
   inkscape:export-filename="icon.png"
   inkscape:export-xdpi="127.06303"
   inkscape:export-ydpi="127.06303"
   xmlns:inkscape="http://www.inkscape.org/namespaces/inkscape"
   xmlns:sodipodi="http://sodipodi.sourceforge.net/DTD/sodipodi-0.dtd"
   xmlns:xlink="http://www.w3.org/1999/xlink"
   xmlns="http://www.w3.org/2000/svg"
   xmlns:svg="http://www.w3.org/2000/svg">
  <sodipodi:namedview
     id="namedview1"
     pagecolor="#505050"
     bordercolor="#eeeeee"
     borderopacity="1"
     inkscape:showpageshadow="0"
     inkscape:pageopacity="0"
     inkscape:pagecheckerboard="0"
     inkscape:deskcolor="#505050"
     inkscape:document-units="mm"
     inkscape:zoom="1.0333895"
     inkscape:cx="155.31415"
     inkscape:cy="307.72522"
     inkscape:window-width="2560"
     inkscape:window-height="1371"
     inkscape:window-x="0"
     inkscape:window-y="0"
     inkscape:window-maximized="1"
     inkscape:current-layer="layer2" />
  <defs
     id="defs1">
    <linearGradient
       id="linearGradient36"
       inkscape:collect="always">
      <stop
         style="stop-color:#00d15a;stop-opacity:1;"
         offset="0"
         id="stop36" />
      <stop
         style="stop-color:#14c400;stop-opacity:1;"
         offset="1"
         id="stop37" />
    </linearGradient>
    <filter
       style="color-interpolation-filters:sRGB;"
       inkscape:label="Drop Shadow"
       id="filter34"
       x="-0.072035728"
       y="-0.071847089"
       width="1.1540764"
       height="1.1536729">
      <feFlood
         result="flood"
         in="SourceGraphic"
         flood-opacity="0.498039"
         flood-color="rgb(0,0,0)"
         id="feFlood33" />
      <feGaussianBlur
         result="blur"
         in="SourceGraphic"
         stdDeviation="3.000000"
         id="feGaussianBlur33" />
      <feOffset
         result="offset"
         in="blur"
         dx="1.000000"
         dy="1.000000"
         id="feOffset33" />
      <feComposite
         result="comp1"
         operator="in"
         in="flood"
         in2="offset"
         id="feComposite33" />
      <feComposite
         result="comp2"
         operator="over"
         in="SourceGraphic"
         in2="comp1"
         id="feComposite34" />
    </filter>
    <linearGradient
       inkscape:collect="always"
       xlink:href="#linearGradient36"
       id="linearGradient37"
       x1="94.220688"
       y1="97.037071"
       x2="-1.5362068"
       y2="-0.76810342"
       gradientUnits="userSpaceOnUse" />
  </defs>
  <g
     inkscape:groupmode="layer"
     id="layer2"
     inkscape:label="Background">
    <rect
       style="fill:url(#linearGradient37);stroke:#00d400;stroke-width:0.264583;fill-opacity:1"
       id="rect36"
       width="109.83879"
       height="109.58276"
       x="-5.1206899"
       y="-4.3525863" />
  </g>
  <g
     inkscape:label="Layer 1"
     inkscape:groupmode="layer"
     id="layer1"
     transform="translate(-44.639917,-108.19853)"
     style="filter:url(#filter34)">
    <path
       style="fill:#ffffff;stroke-width:0.264583"
       id="path6"
       d="m 44.639917,177.15773 c 2.444335,0.58036 4.676191,1.75661 6.835672,3.00773 3.378076,1.95712 5.108011,3.11731 8.232315,5.55103 1.317315,1.02614 2.569977,2.13269 3.854968,3.19903 4.460931,3.88404 8.505169,8.21783 11.826774,13.1146 0.208228,0.28103 4.862063,6.74744 4.245558,6.36492 -0.184137,-0.11425 1.042356,-4.0266 1.693363,-6.00019 1.302527,-3.94873 2.887819,-7.79927 4.419688,-11.66482 0.642279,-1.62074 1.325662,-3.22492 2.000156,-4.83252 1.271435,-3.03035 2.467207,-6.09514 3.858185,-9.07252 1.412563,-3.02358 1.723123,-3.26634 4.552144,-8.91708 1.29623,-2.58912 4.00995,-6.16135 5.54045,-8.61926 0.17373,-0.279 2.63845,-4.0284 2.85103,-4.27906 2.19753,-2.5911 5.68642,-6.41771 7.72802,-9.13336 7.50507,-9.10194 9.0038,-10.74786 17.52117,-18.9216 3.73844,-3.58761 7.00843,-5.91522 11.04202,-8.68161 l 2.23391,-10.07449 v 0 c -5.6034,4.28447 -11.16104,8.60879 -16.3806,13.36432 -6.97659,6.35633 -13.38063,13.29586 -19.47018,20.49906 -2.03063,2.61623 -4.25837,5.09073 -6.0919,7.84869 -3.656563,5.50015 -6.991551,11.20884 -10.356184,16.89227 -4.196016,7.08778 -10.95165,21.73373 -11.475713,22.55244 -0.78391,1.51157 1.218794,-0.60057 0.741927,1.03404 -0.455755,1.51481 1.379474,-0.89941 0.986298,-1.4074 -0.642987,-0.83075 -0.656546,1.97541 -0.05112,1.1169 2.627963,-3.72649 -3.30014,1.79378 -0.753172,-1.98853 0.117737,-0.17485 -1.763195,-0.20029 -1.753371,0.0103 0.01712,0.36688 3.40136,1.38782 4.492377,1.8382 -4.054975,-4.21466 -8.28241,-8.26887 -12.968922,-11.78719 -2.688886,-2.13557 -5.371743,-4.27873 -8.063309,-6.41092 -3.289784,-2.60608 -6.563199,-5.27577 -10.162776,-7.45172 z"
       sodipodi:nodetypes="csscccaaaassccsccsscssccssssccscc" />
    <path
       style="fill:#ffffff;stroke-width:0.264583"
       id="path7"
       d="m 48.026486,119.83923 c 0.778703,0.10078 5.676076,1.84489 8.317532,3.20548 7.271959,3.74572 13.764605,8.84877 20.480218,13.51914 3.582582,2.49151 7.227263,4.91987 10.563595,7.73259 13.146339,11.08312 25.453809,23.19401 37.068369,35.87328 1.19327,1.30266 2.22553,2.74414 3.33829,4.11621 2.78837,3.68937 5.65142,7.35311 8.06758,11.30433 0.56086,1.0481 0.32034,0.54758 0.73746,1.49381 l 7.99079,-12.26846 v 0 c -0.59945,-0.87271 -0.27128,-0.41415 -0.99191,-1.37034 -0.93841,-1.17289 -1.87838,-2.33906 -2.89662,-3.44502 -2.02499,-2.19945 -4.22699,-4.2229 -6.37755,-6.29666 -1.26051,-1.15196 -2.50989,-2.31623 -3.78153,-3.4559 -6.40631,-5.74145 -12.96344,-11.31624 -19.48396,-16.92648 -3.08844,-2.65729 -6.15468,-5.34062 -9.26573,-7.97141 -3.329141,-2.81522 -6.702792,-5.57737 -10.054188,-8.36606 -9.047276,-7.28198 -10.718598,-8.83612 -19.904664,-15.45229 -2.685966,-1.93454 -5.385017,-3.85593 -8.172395,-5.64126 -3.785547,-2.42466 -7.858603,-4.40332 -11.850375,-6.45734 z"
       sodipodi:nodetypes="caaaaccccscscssscsscc" />
  </g>
</svg>
